<svg xmlns="http://www.w3.org/2000/svg" version="1.0" width="723.000000pt" height="1280.000000pt"
    viewBox="0 0 723.000000 1280.000000" preserveAspectRatio="xMidYMid meet">
    <g transform="translate(0.000000,1280.000000) scale(0.100000,-0.100000)" fill="#000000"
        stroke="none">
        <path
            fill="gold"
            d="M3381 12774 c-31 -39 -37 -67 -81 -374 -22 -157 -48 -306 -56 -331 -16 -50 -53 -92 -96 -108 -15 -6 -159 -35 -320 -66 -161 -31 -304 -63 -317 -72 -23 -15 -23 -15 -5 -34 11 -10 88 -38 184 -64 310 -87 323 -92 357 -127 79 -84 84 -136 44 -488 -16 -146 -26 -269 -21 -273 11 -13 75 58 275 308 175 219 223 265 274 265 14 0 178 -53 365 -119 347 -121 401 -136 430 -125 43 17 1 67 -259 309 -124 116 -228 220 -231 233 -9 34 12 52 180 154 273 166 306 188 312 215 4 16 2 28 -6 33 -7 4 -155 11 -329 14 -174 3 -336 11 -361 17 -92 21 -102 42 -195 404 -43 168 -60 211 -91 243 -18 18 -30 15 -53 -14z" />
        <path
            fill="yellowgreen"
            d="M3720 10823 c-22 -23 -40 -45 -40 -50 0 -5 23 -15 52 -22 62 -14 138 -56 138 -76 0 -15 -148 -122 -585 -420 -678 -464 -1003 -720 -1281 -1007 -195 -202 -274 -348 -274 -508 0 -83 28 -142 89 -185 39 -27 50 -30 114 -29 53 1 96 10 161 34 189 67 687 313 1166 575 506 276 747 387 1002 460 191 56 211 45 101 -52 -162 -142 -359 -288 -773 -573 -702 -483 -1046 -764 -1490 -1216 -563 -574 -930 -1076 -930 -1272 0 -60 20 -88 70 -102 116 -31 270 25 805 296 1218 616 2307 1078 2995 1270 160 44 265 52 265 20 0 -25 -43 -57 -246 -180 -1211 -734 -3459 -2418 -4154 -3111 -239 -238 -437 -573 -491 -828 -47 -226 26 -406 191 -467 51 -18 75 -21 155 -18 108 5 128 11 439 135 653 258 1136 500 2161 1083 766 435 1134 639 1644 910 381 202 598 292 856 356 94 22 138 28 240 28 147 1 192 -14 223 -77 17 -34 17 -40 3 -91 -32 -110 -196 -288 -374 -406 -56 -38 -189 -112 -295 -166 -189 -96 -304 -153 -1102 -541 -415 -202 -1226 -610 -1685 -848 -1073 -557 -2258 -1199 -2370 -1283 -41 -31 -125 -106 -186 -167 -162 -161 -243 -274 -289 -401 -30 -83 -31 -94 -5 -143 28 -56 72 -88 153 -113 62 -20 93 -23 232 -22 168 0 238 8 530 54 486 78 1025 212 1692 420 481 151 1614 525 1903 628 307 110 725 268 1270 479 162 63 401 155 530 204 246 94 277 110 265 130 -18 28 -388 -11 -685 -72 -449 -93 -914 -225 -2038 -578 -295 -93 -634 -198 -752 -234 -970 -296 -1494 -402 -1756 -356 -122 21 -120 47 9 133 131 87 361 211 807 435 398 200 557 278 1550 758 1058 512 1729 850 2045 1031 660 377 1229 913 1389 1309 31 76 66 203 66 240 0 35 -31 121 -60 167 -45 73 -143 129 -285 162 -128 30 -456 25 -680 -10 -745 -117 -1208 -318 -2660 -1156 -859 -495 -1154 -658 -1545 -854 -258 -128 -629 -298 -683 -311 -38 -10 -43 13 -18 70 89 202 491 571 1301 1195 124 95 609 461 1077 812 1180 884 1649 1247 2093 1618 191 160 233 203 261 264 23 52 23 90 0 141 -23 52 -66 88 -138 116 -72 27 -204 29 -433 5 -730 -77 -1410 -293 -2588 -825 -305 -138 -342 -149 -342 -101 0 40 191 253 383 428 264 239 415 359 1097 868 272 204 556 421 630 483 169 140 328 296 388 381 l47 65 0 95 c0 83 -3 101 -25 138 -15 27 -42 54 -70 70 -42 25 -53 27 -170 27 -146 -1 -194 -11 -516 -116 -372 -121 -681 -251 -1357 -568 -142 -67 -262 -121 -267 -121 -22 0 -10 88 20 146 97 193 324 409 975 929 336 269 415 339 415 372 0 50 -171 158 -267 170 -51 6 -54 5 -93 -34z" />
        <path
            fill="brown"
            d="M4424 2105 c-236 -35 -469 -120 -659 -243 -96 -61 -250 -185 -237 -190 6 -2 98 17 204 42 265 63 368 79 463 74 144 -7 200 -59 200 -183 0 -89 -29 -183 -105 -343 -64 -133 -90 -229 -111 -411 -17 -150 -7 -384 21 -485 44 -165 130 -297 224 -347 44 -23 46 -23 59 -5 10 14 17 66 21 170 21 442 80 636 287 926 239 337 336 602 284 777 -54 182 -309 267 -651 218z" />
    </g>
</svg>